<svg width="20" height="17" viewBox="0 0 20 17" fill="none" xmlns="http://www.w3.org/2000/svg">
<path d="M18.4813 16.8853C18.481 16.8853 18.4807 16.8853 18.4803 16.8853H1.51953C1.1053 16.8853 0.769531 16.5495 0.769531 16.1353C0.769531 14.4942 1.7578 13.0433 3.23422 12.4259V7.20608C3.23422 5.41756 3.93069 3.73615 5.19533 2.47156C6.45992 1.20692 8.14119 0.510498 9.92937 0.510498H10.0705C11.8328 0.510498 13.5582 1.22529 14.8045 2.47161C16.0692 3.7362 16.7656 5.41761 16.7656 7.20612V12.426C18.2295 13.0382 19.2135 14.4695 19.2301 16.0934C19.2309 16.1073 19.2312 16.1213 19.2312 16.1354C19.2313 16.5495 18.8954 16.8853 18.4813 16.8853ZM2.38287 15.3853H17.617C17.3622 14.5643 16.6981 13.9109 15.8314 13.6912C15.4986 13.6069 15.2656 13.3075 15.2656 12.9642V7.20608C15.2656 5.81825 14.7252 4.51348 13.7439 3.53225C12.7768 2.56512 11.4379 2.0105 10.0705 2.0105H9.92937C8.54178 2.0105 7.23725 2.55092 6.25602 3.53225C5.27464 4.51353 4.73422 5.81829 4.73422 7.20612V12.9643C4.73422 13.3076 4.5012 13.607 4.16848 13.6913C3.30172 13.9109 2.63764 14.5643 2.38287 15.3853Z" fill="#5F6B7A"/>
</svg>
