<svg width="14" height="12" viewBox="0 0 14 12" fill="none" xmlns="http://www.w3.org/2000/svg">
<path d="M12.084 11.5902C12.2166 11.5902 12.3438 11.5375 12.4375 11.4437C12.5313 11.3499 12.584 11.2228 12.584 11.0902V9.53516C12.989 9.42656 13.3468 9.18738 13.602 8.85471C13.8573 8.52204 13.9956 8.11445 13.9956 7.69516C13.9956 7.27586 13.8573 6.86828 13.602 6.5356C13.3468 6.20293 12.989 5.96375 12.584 5.85516V0.910156C12.584 0.777548 12.5313 0.650371 12.4375 0.556603C12.3438 0.462835 12.2166 0.410156 12.084 0.410156C11.9514 0.410156 11.8242 0.462835 11.7304 0.556603C11.6367 0.650371 11.584 0.777548 11.584 0.910156V5.86016C11.179 5.96875 10.8211 6.20793 10.5659 6.5406C10.3107 6.87328 10.1724 7.28086 10.1724 7.70016C10.1724 8.11945 10.3107 8.52704 10.5659 8.85971C10.8211 9.19238 11.179 9.43156 11.584 9.54016V11.0952C11.5853 11.2269 11.6386 11.3528 11.7322 11.4455C11.8258 11.5382 11.9522 11.5902 12.084 11.5902ZM11.169 7.69516C11.169 7.51419 11.2226 7.33728 11.3232 7.18681C11.4237 7.03634 11.5666 6.91906 11.7338 6.84981C11.901 6.78055 12.085 6.76243 12.2625 6.79774C12.44 6.83304 12.603 6.92019 12.731 7.04815C12.8589 7.17612 12.9461 7.33916 12.9814 7.51665C13.0167 7.69414 12.9986 7.87812 12.9293 8.04531C12.8601 8.21251 12.7428 8.35541 12.5923 8.45595C12.4419 8.55649 12.265 8.61016 12.084 8.61016C11.8413 8.61016 11.6086 8.51375 11.437 8.34216C11.2654 8.17056 11.169 7.93783 11.169 7.69516Z" fill="#5F6B7A"/>
<path d="M7.00875 11.592C7.14136 11.592 7.26854 11.5393 7.36231 11.4456C7.45608 11.3518 7.50875 11.2246 7.50875 11.092V4.16201C7.95686 4.04081 8.34568 3.76096 8.6029 3.37454C8.86011 2.98811 8.96821 2.5214 8.90708 2.06124C8.84594 1.60108 8.61974 1.17879 8.27055 0.87292C7.92136 0.567054 7.47296 0.398438 7.00875 0.398438C6.54455 0.398438 6.09615 0.567054 5.74696 0.87292C5.39777 1.17879 5.17157 1.60108 5.11043 2.06124C5.0493 2.5214 5.15739 2.98811 5.41461 3.37454C5.67183 3.76096 6.06065 4.04081 6.50875 4.16201V11.092C6.50875 11.2246 6.56143 11.3518 6.6552 11.4456C6.74897 11.5393 6.87615 11.592 7.00875 11.592ZM6.09375 2.32701C6.09276 2.14583 6.14559 1.96844 6.24552 1.81731C6.34546 1.66618 6.48802 1.54813 6.65512 1.47811C6.82223 1.40808 7.00636 1.38925 7.18418 1.42399C7.362 1.45873 7.5255 1.54547 7.65397 1.67324C7.78243 1.801 7.87008 1.96403 7.90579 2.14166C7.9415 2.31928 7.92368 2.50352 7.85457 2.671C7.78547 2.83849 7.66819 2.98169 7.51762 3.08245C7.36704 3.18322 7.18994 3.23701 7.00875 3.23701C6.76695 3.23702 6.53497 3.1413 6.36351 2.97078C6.19206 2.80027 6.09508 2.56882 6.09375 2.32701Z" fill="#5F6B7A"/>
<path d="M1.41211 7.84016V11.0902C1.41211 11.2228 1.46479 11.3499 1.55855 11.4437C1.65232 11.5375 1.7795 11.5902 1.91211 11.5902C2.04472 11.5902 2.17189 11.5375 2.26566 11.4437C2.35943 11.3499 2.41211 11.2228 2.41211 11.0902V7.84016C2.8171 7.73156 3.17495 7.49238 3.43017 7.15971C3.68539 6.82704 3.82373 6.41945 3.82373 6.00016C3.82373 5.58086 3.68539 5.17328 3.43017 4.8406C3.17495 4.50793 2.8171 4.26875 2.41211 4.16016V0.910156C2.41211 0.777548 2.35943 0.650371 2.26566 0.556603C2.17189 0.462835 2.04472 0.410156 1.91211 0.410156C1.7795 0.410156 1.65232 0.462835 1.55855 0.556603C1.46479 0.650371 1.41211 0.777548 1.41211 0.910156V4.16016C1.00712 4.26875 0.649268 4.50793 0.394046 4.8406C0.138824 5.17328 0.000488281 5.58086 0.000488281 6.00016C0.000488281 6.41945 0.138824 6.82704 0.394046 7.15971C0.649268 7.49238 1.00712 7.73156 1.41211 7.84016ZM1.91211 5.08516C2.09329 5.08417 2.27068 5.13699 2.42181 5.23693C2.57294 5.33686 2.69099 5.47942 2.76101 5.64652C2.83104 5.81363 2.84987 5.99776 2.81513 6.17558C2.78039 6.3534 2.69364 6.5169 2.56588 6.64537C2.43812 6.77384 2.27509 6.86148 2.09746 6.89719C1.91983 6.9329 1.7356 6.91508 1.56812 6.84597C1.40063 6.77687 1.25743 6.6596 1.15667 6.50902C1.0559 6.35844 1.00211 6.18134 1.00211 6.00016C1.0021 5.75835 1.09782 5.52637 1.26833 5.35491C1.43885 5.18346 1.6703 5.08648 1.91211 5.08516Z" fill="#5F6B7A"/>
</svg>
